<svg xmlns="http://www.w3.org/2000/svg" width="1146" height="818" viewBox="0 0 1146 818" fill="none">
<g clip-path="url(#clip0)">
<path opacity="0.1" d="M1145.7 454.1C1145.68 492.877 1137.24 531.188 1120.97 566.389C1104.71 601.589 1081 632.842 1051.48 657.989C1021.96 683.136 987.339 701.58 950.001 712.048C912.663 722.516 873.499 724.758 835.21 718.62H410.5C394.096 720.871 377.558 722 361 722C199.65 722 63 616.14 16.78 470.09C5.62438 434.803 -0.035171 398.009 -2.03739e-05 361C-2.03739e-05 161.62 161.63 0 361 0C521.57 0 657.63 104.81 704.52 249.81C752.887 208.657 814.345 186.102 877.85 186.2C1025.76 186.2 1145.7 306.14 1145.7 454.1Z" fill="#FFE663"/>
<path opacity="0.1" d="M1042.79 665.17C1013.72 687.867 980.285 704.328 944.569 713.525C908.854 722.721 871.626 724.456 835.21 718.62H410.5C394.096 720.871 377.558 722 361 722C199.65 722 63 616.14 16.78 470.09C51.35 396.2 140.19 343.62 244.35 343.62C345.85 343.62 432.8 393.56 469.16 464.49C487.04 461.239 505.177 459.609 523.35 459.62C628.55 459.62 718.12 513.27 751.94 588.33C779.955 579.838 809.076 575.555 838.35 575.62C924.15 575.62 999.56 611.3 1042.79 665.17Z" fill="#E5E5E5"/>
<path opacity="0.1" d="M573.35 817.62C855.015 817.62 1083.35 806.203 1083.35 792.12C1083.35 778.037 855.015 766.62 573.35 766.62C291.685 766.62 63.35 778.037 63.35 792.12C63.35 806.203 291.685 817.62 573.35 817.62Z" fill="black" fill-opacity="0.16"/>
<path opacity="0.1" d="M908.37 249.47C907.508 248.237 907.034 246.774 907.01 245.27C907.01 236.16 925.59 228.77 948.51 228.77C971.43 228.77 990.01 236.16 990.01 245.27C989.965 246.979 989.361 248.627 988.29 249.96C1013.81 252.8 1031.01 258.14 1031.01 264.27C1031.01 273.38 992.95 280.77 946.01 280.77C899.07 280.77 861.01 273.38 861.01 264.27C861.01 257.81 880.31 252.17 908.37 249.47Z" fill="#CF8310"/>
<path opacity="0.1" d="M759.3 74.45C758.6 73.441 758.214 72.2477 758.19 71.02C758.19 63.58 773.35 57.56 792.04 57.56C810.73 57.56 825.9 63.56 825.9 71.02C825.866 72.411 825.378 73.7526 824.51 74.84C845.32 77.17 859.35 81.52 859.35 86.52C859.35 93.95 828.35 99.98 790.01 99.98C751.67 99.98 720.66 93.98 720.66 86.52C720.66 81.22 736.41 76.65 759.3 74.45Z" fill="#CF8310"/>
<path opacity="0.1" d="M305.62 139.06C304.509 138.047 303.728 136.723 303.38 135.26C301.38 126.36 317.92 115.11 340.29 110.13C362.66 105.15 382.41 108.31 384.39 117.21C384.719 118.887 384.49 120.625 383.74 122.16C409.26 119.39 427.21 120.86 428.54 126.84C430.54 135.73 394.98 151.22 349.16 161.42C303.34 171.62 264.59 172.7 262.61 163.8C261.2 157.47 278.85 147.81 305.62 139.06Z" fill="#CF8310"/>
<path opacity="0.1" d="M204.58 130.62C202.25 129.27 199.1 130.56 197.5 132.73C195.9 134.9 195.45 137.73 195.05 140.36C194.16 146.27 193.51 153.06 197.5 157.52C190.98 137.75 172.23 122.6 151.5 120.39" stroke="black" stroke-width="3" stroke-miterlimit="10"/>
<path opacity="0.1" d="M407.61 223.87C406.11 223 404.09 223.87 403.06 225.23C402.147 226.713 401.605 228.393 401.48 230.13C400.91 233.94 400.48 238.3 403.06 241.13C400.864 234.783 396.93 229.181 391.705 224.961C386.481 220.741 380.177 218.073 373.51 217.26" stroke="black" stroke-width="3" stroke-miterlimit="10"/>
<path opacity="0.1" d="M738.11 164.59C736.61 163.73 734.59 164.59 733.56 165.95C732.646 167.436 732.104 169.12 731.98 170.86C731.41 174.66 730.98 179.02 733.56 181.86C731.362 175.515 727.427 169.913 722.203 165.694C716.979 161.474 710.676 158.805 704.01 157.99" stroke="#6C63FF" stroke-width="3" stroke-miterlimit="10"/>






</g>
<defs>
<clipPath id="clip0">
<rect width="1145.7" height="817.62" fill="white"/>
</clipPath>
</defs>
</svg>