<?xml version="1.0" ?><!DOCTYPE svg  PUBLIC '-//W3C//DTD SVG 1.1//EN'  'http://www.w3.org/Graphics/SVG/1.1/DTD/svg11.dtd'><svg height="512px" style="enable-background:new 0 0 512 512;" version="1.1" viewBox="0 0 512 512" width="512px" xml:space="preserve" xmlns="http://www.w3.org/2000/svg" xmlns:xlink="http://www.w3.org/1999/xlink"><g id="_x36_72_x2C__Done_x2C__fast_x2C__optimization_x2C__speed_x2C__sport"><g><path d="M368.107,163.494c-20.797-20.822-47.009-36.254-76.323-44.035h-0.051    l-0.051-0.024l-0.331-0.077l-0.33-0.075l-0.33-0.103c-4.145-1.068-8.289-1.957-12.509-2.719l-1.907-0.332    c-7.882-1.271-15.56-2.008-23.543-2.262h-0.355c-2.874-0.051-5.721-0.078-8.594,0c-13.246,0.279-25.831,2.16-38.466,5.415    l-0.33,0.075l-0.407,0.102c-28.221,7.068-55.831,23.518-76.348,44.035c-30.687,30.686-49.679,73.095-49.679,119.95    c0,46.831,18.992,89.239,49.679,119.925c30.687,30.714,73.094,49.705,119.95,49.705c46.831,0,89.238-18.991,119.926-49.705    c30.687-30.686,49.679-73.094,49.679-119.925C417.786,236.589,398.794,194.18,368.107,163.494 M239.512,88.238h0.102h17.136h0.077    h13.246V70.85h-43.806v17.389H239.512z M259.852,107.943c10.805,0.711,21.306,2.39,31.449,4.957    c3.306-4.373,6.001-9.255,7.882-14.542c2.008-5.669,3.127-11.797,3.127-18.204c0-14.95-6.076-28.5-15.865-38.288    c-9.788-9.788-23.339-15.864-38.263-15.864c-14.974,0-28.5,6.076-38.314,15.864c-9.788,9.788-15.838,23.313-15.838,38.288    c0,6.407,1.119,12.535,3.127,18.204c1.881,5.287,4.576,10.195,7.881,14.542c10.17-2.567,20.669-4.246,31.45-4.957V94.469H223.14    c-1.729,0-3.128-1.398-3.128-3.104V67.723c0-1.704,1.398-3.103,3.128-3.103h50.06c1.729,0,3.127,1.398,3.127,3.103v23.643    c0,1.705-1.397,3.104-3.127,3.104h-13.348V107.943z M248.182,107.561h1.068h0.356h0.356l0.355,0.026h0.127h0.229h1.068    l0.382,0.024h0.356h0.228h0.127l0.356,0.026h0.433V94.469h-10.907v13.169h0.433l0.356-0.026h0.126h0.229h0.356l0.382-0.024h1.068    h0.228h0.127l0.356-0.026h0.356h0.355H248.182z M339.76,191.841c-23.441-23.44-55.831-37.933-91.578-37.933    c-35.771,0-68.162,14.492-91.602,37.933c-23.441,23.442-37.958,55.833-37.958,91.604c0,35.772,14.517,68.137,37.958,91.579    c23.44,23.439,55.831,37.956,91.602,37.956c35.747,0,68.137-14.517,91.578-37.956c23.44-23.442,37.932-55.807,37.932-91.579    C377.691,247.674,363.2,215.283,339.76,191.841z M248.182,147.654c37.476,0,71.442,15.203,96.002,39.764    c24.584,24.585,39.764,58.525,39.764,96.026c0,37.476-15.18,71.442-39.764,96.003c-24.56,24.583-58.526,39.787-96.002,39.787    c-37.5,0-71.466-15.204-96.026-39.787c-24.56-24.561-39.764-58.527-39.764-96.003c0-37.501,15.179-71.441,39.764-96.026    C176.715,162.834,210.682,147.654,248.182,147.654z M261.402,270.225c-2.44-2.441-5.822-3.941-9.508-3.941    c-3.738,0-7.094,1.5-9.534,3.941c-2.416,2.416-3.941,5.797-3.941,9.508c0,3.712,1.526,7.068,3.941,9.51    c2.44,2.44,5.796,3.939,9.534,3.939c3.687,0,7.068-1.499,9.508-3.939c2.415-2.441,3.94-5.798,3.94-9.51    C265.343,276.021,263.817,272.641,261.402,270.225z M270.326,272.793c0.813,2.16,1.246,4.499,1.246,6.939    c0,5.441-2.187,10.373-5.771,13.934c-3.56,3.559-8.492,5.771-13.907,5.771c-5.466,0-10.399-2.213-13.958-5.771    c-3.559-3.561-5.771-8.492-5.771-13.934s2.212-10.371,5.771-13.932c2.874-2.849,6.586-4.855,10.755-5.518l57.864-79.348    c1.019-1.374,2.95-1.678,4.349-0.662c1.221,0.865,1.602,2.492,0.991,3.813L270.326,272.793z M339.148,258.732    c0.713,3.662,6.891,2.67,6.001-1.678c-0.509-1.982-1.17-4.246-1.882-6.152c-1.678-4.169-7.297-1.425-5.898,2.033    C338.005,254.817,338.641,256.801,339.148,258.732z M342.43,282.605c0,4.017,6.254,3.966,6.254-0.075    c0-2.136-0.102-4.298-0.255-6.433c0-3.712-6.254-3.916-6.254,0.152C342.226,278.385,342.43,280.47,342.43,282.605z     M339.53,306.555c-0.864,4.374,5.339,5.213,6.077,1.5c0.508-2.084,0.966-4.143,1.373-6.254c0.787-3.966-5.314-5.289-6.153-1.169    C340.471,302.64,340.014,304.571,339.53,306.555z M330.709,329.005c-0.891,1.449-0.204,3.382,1.118,4.169    c1.603,0.967,3.458,0.332,4.348-1.168c1.042-1.908,2.008-3.815,2.949-5.748c1.678-4.244-4.297-6.05-5.669-2.644    C332.564,325.445,331.674,327.225,330.709,329.005z M316.42,348.454c-2.771,2.771,1.678,7.17,4.475,4.373    c1.5-1.524,2.975-3.255,4.373-4.882c2.416-3.229-1.729-7.068-4.805-4.017C319.141,345.48,317.818,346.954,316.42,348.454z     M297.683,363.633c-3.433,2.059-0.153,7.371,3.305,5.287c1.856-1.145,3.61-2.313,5.365-3.559c3.433-2.568-0.458-7.449-3.636-5.086    C301.089,361.446,299.386,362.564,297.683,363.633z M275.716,373.573c-4.397,1.78-1.398,7.271,1.856,5.976    c2.033-0.611,4.094-1.323,6.076-2.087c3.94-1.575,1.5-7.321-2.212-5.847C279.58,372.328,277.623,373.014,275.716,373.573z     M251.945,377.615c-3.865,0-4.093,6.255,0.254,6.255c2.034-0.051,4.449-0.203,6.457-0.458c4.679-0.94,2.695-6.891-0.686-6.203    C255.961,377.361,253.979,377.59,251.945,377.615z M227.893,375.479c-4.118-0.812-5.211,5.34-1.295,6.104    c2.11,0.457,4.194,0.863,6.305,1.195c3.737,0.736,5.313-5.315,0.94-6.179C231.834,376.269,229.902,375.912,227.893,375.479z     M205.216,367.344c-4.475-1.779-6.026,4.298-2.848,5.593c1.932,0.967,3.865,1.856,5.848,2.722    c3.991,1.602,6.102-4.271,2.466-5.721C208.825,369.099,207.021,368.26,205.216,367.344z M185.333,353.692    c-0.94-0.916-2.771-1.042-3.838-0.255c-1.704,1.297-1.831,3.406-0.305,4.932c1.577,1.424,3.229,2.797,4.907,4.145    c3.433,2.566,7.017-2.567,3.864-4.934C188.385,356.335,186.834,355.038,185.333,353.692z M169.571,335.438    c-1.958-3.279-7.475-0.332-5.212,3.457c1.17,1.754,2.441,3.611,3.738,5.262c2.44,3.256,7.474-0.457,4.957-3.788    C171.859,338.742,170.689,337.14,169.571,335.438z M158.918,313.801c-1.653-4.195-7.271-1.449-5.898,2.008    c0.584,1.934,1.5,4.172,2.288,6.053c1.475,3.687,7.322,1.5,5.746-2.416C160.316,317.691,159.478,315.58,158.918,313.801z     M154.139,290.156c0-3.609-6.229-4.17-6.229,0.383c0.126,2.135,0.355,4.396,0.661,6.481c0.89,4.476,6.916,2.747,6.177-0.863    C154.495,294.199,154.24,292.139,154.139,290.156z M155.537,266.079c0.788-4.067-5.364-5.11-6.153-1.144    c-0.33,2.137-0.711,4.195-0.991,6.357c-0.686,3.533,5.313,5.313,6.204,0.762C154.85,270.021,155.206,268.088,155.537,266.079z     M162.96,243.122c1.704-4.245-4.296-6.077-5.669-2.645c-0.915,1.934-1.754,3.917-2.568,5.899c-1.55,3.891,4.399,5.873,5.822,2.288    C161.309,246.784,162.096,244.952,162.96,243.122z M175.978,222.809c2.415-3.204-1.729-7.068-4.805-3.992    c-1.322,1.552-2.823,3.382-3.992,5.06c-2.415,3.229,2.517,7.067,5.06,3.687C173.41,225.961,174.681,224.334,175.978,222.809z     M193.724,206.486c3.458-2.567-0.483-7.424-3.611-5.086c-1.753,1.273-3.458,2.543-5.135,3.891    c-2.95,2.187,0.026,7.221,3.813,4.957C190.419,208.951,192.045,207.732,193.724,206.486z M215.055,195.197    c3.94-1.575,1.475-7.322-2.237-5.846c-2.008,0.762-3.967,1.575-5.924,2.465c-1.017,0.381-1.856,1.576-1.856,2.746    c0,2.363,2.187,3.84,4.398,2.948C211.292,196.672,213.148,195.884,215.055,195.197z M238.521,189.654    c4.729-0.94,2.695-6.889-0.661-6.203c-2.06,0.153-4.374,0.484-6.408,0.865c-4.22,0.839-2.771,6.916,1.068,6.152    C234.402,190.113,236.614,189.807,238.521,189.654z M262.623,190.291c3.736,0.762,5.288-5.313,0.94-6.178    c-2.11-0.306-4.246-0.584-6.382-0.788c-4.83,0-3.991,6.229-0.559,6.229C258.631,189.756,260.614,189.986,262.623,190.291z     M331.878,227.842c-1.932-3.254-7.474-0.355-5.187,3.459c1.094,1.677,2.188,3.405,3.178,5.136c2.188,3.66,7.449,0.306,5.416-3.128    C334.242,231.504,333.073,229.572,331.878,227.842z M121.316,472.904c-1.729,0-3.127-1.398-3.127-3.127s1.398-3.127,3.127-3.127    h215.342c1.729,0,3.127,1.398,3.127,3.127s-1.398,3.127-3.127,3.127H121.316z M247.419,485.999c-1.729,0-3.127-1.399-3.127-3.127    c0-1.704,1.398-3.129,3.127-3.129h149.01c1.729,0,3.127,1.425,3.127,3.129c0,1.728-1.398,3.127-3.127,3.127H247.419z     M411.684,485.999c-1.702,0-3.127-1.399-3.127-3.127c0-1.704,1.425-3.129,3.127-3.129h18.636c1.729,0,3.128,1.425,3.128,3.129    c0,1.728-1.398,3.127-3.128,3.127H411.684z M112.825,485.616c-1.729,0-3.127-1.396-3.127-3.127c0-1.729,1.397-3.127,3.127-3.127    h70.603c1.728,0,3.127,1.398,3.127,3.127c0,1.73-1.399,3.127-3.127,3.127H112.825z M256.216,260.512    c3.712,0.84,7.017,2.695,9.585,5.289l0.61,0.635l26.136-55.729L256.216,260.512z" style="fill-rule:evenodd;clip-rule:evenodd;"/></g></g><g id="Layer_1"/></svg>