<svg width="467.39801000000006" height="467.38000000000005" xmlns="http://www.w3.org/2000/svg">

 <g>
  <title>background</title>
  <rect fill="none" id="canvas_background" height="402" width="582" y="-1" x="-1"/>
 </g>
 <g>
  <title>Layer 1</title>
  <path clip-rule="evenodd" fill="#c75c5c" fill-rule="evenodd" id="path4" d="m233.699999,0.000001c129.121,0 233.698,104.911 233.698,233.69c0,129.113 -104.577,233.69 -233.698,233.69c-129.118,0 -233.7,-104.577 -233.7,-233.69c0,-128.779 104.582,-233.69 233.7,-233.69z"/>
  <path clip-rule="evenodd" fill="#324a5e" fill-rule="evenodd" id="path8" d="m297.591999,333.552001l-115.34,0c-4.366,0 -7.735,-3.35 -7.735,-7.386l0,0c0,-4.381 3.369,-7.73 7.735,-7.73l115.34,0c4.037,0 7.73,3.35 7.73,7.73l0,0c0,4.037 -3.693,7.386 -7.73,7.386z"/>
  <rect clip-rule="evenodd" fill="#21313e" fill-rule="evenodd" y="278.411011" x="208.815999" width="61.873001" id="rect10" height="40.025002"/>
  <rect clip-rule="evenodd" fill="#324a5e" fill-rule="evenodd" y="93.134001" x="94.155999" width="291.54099" id="rect12" height="201.08"/>
  <rect clip-rule="evenodd" fill="#ffffff" fill-rule="evenodd" y="113.328001" x="114.330999" width="251.18201" id="rect14" height="160.71201"/>
  <path clip-rule="evenodd" fill="#253645" fill-rule="evenodd" id="path24" d="m158.717999,237.059001l-83.73,0l0,100.53l83.729,0l0,-100.53l0.001,0zm-62.205,-6.385c0,0.668 0.339,1.002 1.007,1.002l38.67,0c0.678,0 1.341,-0.334 1.341,-1.002c0,-0.678 -0.663,-1.012 -1.341,-1.012l-38.67,0c-0.668,0.001 -1.007,0.335 -1.007,1.012zm68.589,1.336l0,113.31c0,4.714 -4.023,8.751 -9.071,8.751l-78.356,0c-4.7,0 -8.737,-4.037 -8.737,-8.751l0,-113.31c0,-4.705 4.037,-8.732 8.737,-8.732l78.356,0c5.048,0 9.071,4.027 9.071,8.732z"/>
  <path clip-rule="evenodd" fill="#ffffff" fill-rule="evenodd" id="path26" d="m117.026999,340.625001c-2.696,0 -4.371,2.014 -4.371,4.695c0,2.357 1.675,4.371 4.371,4.371c2.353,0 4.366,-2.014 4.366,-4.371c0,-2.682 -2.013,-4.695 -4.366,-4.695z"/>
  <path clip-rule="evenodd" fill="#ffffff" fill-rule="evenodd" id="path28" d="m97.519999,231.676001l38.67,0c0.678,0 1.341,-0.334 1.341,-1.002c0,-0.678 -0.663,-1.012 -1.341,-1.012l-38.67,0c-0.668,0 -1.007,0.334 -1.007,1.012c0,0.668 0.339,1.002 1.007,1.002z"/>
  <rect clip-rule="evenodd" fill="#ffffff" fill-rule="evenodd" y="237.058991" x="74.988" width="83.728996" id="rect30" height="100.53"/>
 </g>
</svg>